<?xml version="1.0" standalone="no"?>
<!DOCTYPE svg PUBLIC "-//W3C//DTD SVG 20010904//EN"
 "http://www.w3.org/TR/2001/REC-SVG-20010904/DTD/svg10.dtd">
<svg version="1.0" xmlns="http://www.w3.org/2000/svg"
 width="700.000000pt" height="700.000000pt" viewBox="0 0 700.000000 700.000000"
 preserveAspectRatio="xMidYMid meet">
<metadata>
Created by potrace 1.14, written by Peter Selinger 2001-2017
</metadata>
<g transform="translate(0.000000,700.000000) scale(0.100000,-0.100000)"
fill="#000000" stroke="none">
<path d="M114 6853 c20 -164 53 -376 76 -493 7 -30 14 -68 16 -85 11 -67 106
-438 140 -545 126 -398 268 -645 470 -819 169 -145 397 -251 599 -279 66 -9
305 -9 377 0 80 10 220 47 303 79 l70 26 52 -77 c69 -104 221 -349 265 -430
20 -36 53 -94 73 -130 63 -111 229 -449 283 -575 79 -187 118 -304 174 -515
31 -119 33 -134 32 -300 0 -159 -7 -370 -19 -555 -2 -38 -7 -142 -11 -230 -3
-88 -7 -189 -9 -225 -1 -36 -6 -135 -9 -220 -4 -85 -9 -202 -11 -260 -3 -58
-7 -157 -10 -220 -3 -63 -7 -164 -10 -225 -3 -60 -7 -164 -10 -230 -3 -66 -7
-160 -10 -210 -3 -49 -8 -145 -11 -212 l-6 -123 277 0 276 0 -6 113 c-3 61 -7
162 -10 222 -3 61 -7 160 -10 220 -2 61 -7 169 -10 240 -3 72 -8 166 -10 210
-2 44 -7 145 -10 225 -3 80 -7 181 -10 225 -3 44 -7 145 -10 225 -3 80 -8 179
-10 220 -15 257 -13 396 5 485 76 370 328 714 700 957 139 90 141 91 159 51
26 -57 104 -164 172 -237 158 -169 380 -291 604 -330 17 -3 41 -8 55 -12 55
-12 287 -12 362 1 187 33 429 132 691 283 54 32 117 68 140 81 81 47 324 214
464 319 114 86 139 110 130 121 -17 20 -295 227 -422 313 -348 237 -754 439
-950 472 -16 3 -52 10 -80 15 -50 10 -236 8 -310 -4 -288 -44 -563 -233 -740
-510 -41 -65 -125 -228 -125 -243 0 -6 -28 -23 -62 -39 -340 -150 -631 -368
-828 -621 l-35 -45 -13 49 c-77 286 -262 700 -464 1033 -21 34 -38 65 -38 67
0 20 -319 496 -447 667 -40 54 -71 102 -68 106 6 11 52 195 62 251 10 57 10
342 0 395 -26 144 -62 253 -126 380 -101 202 -280 404 -451 510 -323 199 -829
353 -1479 450 -90 14 -170 25 -178 25 -10 0 -13 -10 -9 -37z"/>
</g>
</svg>
